<svg width="432" height="86" viewBox="0 0 432 86" fill="none" xmlns="http://www.w3.org/2000/svg">
<path d="M112.052 23.2879V72.7627H102.732V23.2879H87.5V15.3688H127.206V23.2879H112.052Z" fill="#55281D"/>
<path d="M135.546 41.5175C136.46 39.0608 137.661 37.2444 139.149 36.0683C140.663 34.8921 142.53 34.3041 144.748 34.3041C145.949 34.3041 147.124 34.4478 148.273 34.7353C149.447 35.0228 150.596 35.441 151.719 35.9898L148.664 43.2033C147.933 42.6806 147.137 42.3016 146.276 42.0664C145.44 41.805 144.5 41.6744 143.456 41.6744C140.637 41.6744 138.614 42.8113 137.387 45.0851C136.16 47.3327 135.546 51.1224 135.546 56.4541V72.7627H127.049V35.5194H135.546V41.5175Z" fill="#55281D"/>
<path d="M191.503 72.7627H183.006V67.9407C181.491 70.0838 179.716 71.6781 177.68 72.7235C175.67 73.7689 173.36 74.2916 170.749 74.2916C165.502 74.2916 161.364 72.5014 158.336 68.9208C155.334 65.3141 153.833 60.3875 153.833 54.1411C153.833 48.2083 155.373 43.4254 158.454 39.7926C161.534 36.1336 165.554 34.3041 170.514 34.3041C173.542 34.3041 176.127 34.9444 178.267 36.2251C180.434 37.4796 182.014 39.296 183.006 41.6744V35.5978H191.503V72.7627ZM183.24 54.0627C183.24 50.2207 182.34 47.2282 180.539 45.0851C178.763 42.9419 176.27 41.8704 173.059 41.8704C169.849 41.8704 167.316 42.9811 165.463 45.2027C163.636 47.3981 162.722 50.4559 162.722 54.3763C162.722 58.3228 163.609 61.3676 165.385 63.5107C167.16 65.6538 169.666 66.7254 172.903 66.7254C175.957 66.7254 178.437 65.5623 180.343 63.2363C182.275 60.9102 183.24 57.8523 183.24 54.0627Z" fill="#55281D"/>
<path d="M216.29 74.9973L196.828 35.5978H206.109L214.214 54.2979C214.475 54.8729 214.788 55.7353 215.154 56.8853C215.519 58.0353 215.898 59.4074 216.29 61.0017C216.551 59.8778 216.851 58.7671 217.19 57.6694C217.556 56.5455 217.986 55.4217 218.482 54.2979L226.549 35.5978H235.79L216.29 74.9973Z" fill="#55281D"/>
<path d="M276.906 55.4348H247.224C247.433 58.9108 248.464 61.6289 250.318 63.5891C252.171 65.5231 254.638 66.4902 257.718 66.4902C260.459 66.4902 262.744 65.9152 264.571 64.7652C266.398 63.6152 267.991 61.7596 269.348 59.1983L276.514 63.1971C274.426 66.9345 271.841 69.7179 268.761 71.5474C265.68 73.3769 262.065 74.2916 257.914 74.2916C251.962 74.2916 247.224 72.4752 243.7 68.8424C240.176 65.2095 238.414 60.3613 238.414 54.2979C238.414 48.4696 240.228 43.6868 243.857 39.9494C247.511 36.1859 252.197 34.3041 257.914 34.3041C263.892 34.3041 268.552 36.016 271.893 39.4398C275.235 42.8635 276.906 47.6594 276.906 53.8274V55.4348ZM268.095 49.7111C267.756 47.0452 266.738 45.0197 265.041 43.6345C263.344 42.2232 261.021 41.5175 258.071 41.5175C255.277 41.5175 253.032 42.1971 251.336 43.5561C249.639 44.9152 248.451 46.9668 247.772 49.7111H268.095Z" fill="#55281D"/>
<path d="M286.186 72.7627V11.9973H294.683V72.7627H286.186Z" fill="#55281D"/>
<path d="M307.253 72.7627V11.9973H315.75V72.7627H307.253Z" fill="#55281D"/>
<path d="M327.184 19.5244C327.184 18.0869 327.706 16.8455 328.75 15.8001C329.821 14.7546 331.087 14.2319 332.549 14.2319C334.063 14.2319 335.316 14.7416 336.308 15.7608C337.326 16.754 337.835 18.0085 337.835 19.5244C337.835 21.0403 337.326 22.3209 336.308 23.3663C335.29 24.3856 334.037 24.8953 332.549 24.8953C331.087 24.8953 329.821 24.3725 328.75 23.3271C327.706 22.2556 327.184 20.988 327.184 19.5244ZM328.32 72.7627V35.5978H336.817V72.7627H328.32Z" fill="#55281D"/>
<path d="M383.923 72.7627H375.426V67.9407C373.912 70.0838 372.137 71.6781 370.101 72.7235C368.091 73.7689 365.78 74.2916 363.17 74.2916C357.923 74.2916 353.785 72.5014 350.757 68.9208C347.755 65.3141 346.254 60.3875 346.254 54.1411C346.254 48.2083 347.794 43.4254 350.874 39.7926C353.955 36.1336 357.975 34.3041 362.935 34.3041C365.963 34.3041 368.548 34.9444 370.688 36.2251C372.855 37.4796 374.434 39.296 375.426 41.6744V35.5978H383.923V72.7627ZM375.661 54.0627C375.661 50.2207 374.761 47.2282 372.959 45.0851C371.184 42.9419 368.691 41.8704 365.48 41.8704C362.269 41.8704 359.737 42.9811 357.884 45.2027C356.056 47.3981 355.143 50.4559 355.143 54.3763C355.143 58.3228 356.03 61.3676 357.805 63.5107C359.58 65.6538 362.087 66.7254 365.324 66.7254C368.378 66.7254 370.858 65.5623 372.764 63.2363C374.695 60.9102 375.661 57.8523 375.661 54.0627Z" fill="#55281D"/>
<path d="M395.671 72.7627V35.5978H403.659V41.6744C405.356 39.1131 407.353 37.2444 409.65 36.0683C411.947 34.8921 414.741 34.3041 418.03 34.3041C420.797 34.3041 423.146 34.7484 425.078 35.637C427.036 36.4995 428.563 37.7932 429.66 39.5182C430.312 40.5375 430.782 41.7266 431.069 43.0857C431.356 44.4447 431.5 46.8231 431.5 50.2207V72.7627H422.924V53.6706C422.924 48.7832 422.324 45.5424 421.123 43.9482C419.948 42.3277 417.847 41.5175 414.819 41.5175C412.835 41.5175 411.06 41.8834 409.493 42.6152C407.953 43.347 406.739 44.3794 405.852 45.7123C405.225 46.6009 404.781 47.7509 404.52 49.1622C404.285 50.5474 404.168 52.7689 404.168 55.8268V72.7627H395.671Z" fill="#55281D"/>
<path d="M27.1023 61.8743L38 72.6173L48.8977 61.8743L38 51.1313L27.1023 61.8743ZM38 9.73711V9.75326C34.8809 9.75326 31.7618 10.9272 29.3857 13.2696L29.3747 13.2589C27.004 15.6013 25.8132 18.6815 25.8132 21.7617C25.8132 24.8473 26.9985 27.9221 29.3638 30.2538H29.3802L38 38.7459L46.6143 30.2538H46.6307C49.0124 27.906 50.2032 24.8312 50.2032 21.7617H50.1868C50.1868 18.6869 48.996 15.6121 46.6198 13.2696C44.2272 10.9164 41.1082 9.73711 38 9.73711ZM55.1795 68.067L41.1409 81.9063L38 85.0027L34.8591 81.9063L20.8205 68.067L6.78186 81.9063L0.5 75.7136L31.7236 44.9386L23.1092 36.4465L23.1202 36.4357C18.996 32.3755 16.9366 27.0605 16.9366 21.7617C16.9366 16.4575 18.996 11.148 23.1092 7.09309V7.08232C27.2225 3.02744 32.614 0.997314 38 0.997314V1.01347C43.3969 1.01347 48.7939 3.03821 52.8962 7.08232C57.0095 11.1372 59.0634 16.4522 59.0634 21.7671H59.047C59.047 27.0767 56.9931 32.3863 52.8853 36.4411L52.8962 36.4519L44.2819 44.9386L75.5 75.7136L69.2181 81.9063L55.1795 68.067Z" fill="#55281D"/>
</svg>
